<?xml version="1.0" encoding="utf-8"?>
<!-- Generator: Adobe Illustrator 28.4.1, SVG Export Plug-In . SVG Version: 6.00 Build 0)  -->
<svg version="1.1" id="Camada_1" xmlns="http://www.w3.org/2000/svg" xmlns:xlink="http://www.w3.org/1999/xlink" x="0px" y="0px"
	 viewBox="0 0 64.26 84" style="enable-background:new 0 0 64.26 84;" xml:space="preserve">
<g>
	<path d="M58.62,3.64c1.13,2.54,1.74,5.13,1.67,7.84c-0.04,1.49-0.29,2.98-0.53,4.46c-0.08,0.46-0.04,0.81,0.22,1.18
		c1.5,2.14,2.72,4.43,3.38,6.97c2.39,9.25,0.19,17.23-6.71,23.87c-1.48,1.42-3.18,2.51-5.1,3.24c-0.11,0.04-0.23,0.07-0.54,0.16
		c0.26-0.86,0.42-1.63,0.72-2.34c0.62-1.48,1.72-2.65,2.77-3.83c2.11-2.37,3.89-4.95,4.93-7.97c1.38-4,1.75-8.07,0.63-12.2
		c-0.03-0.13-0.09-0.24-0.14-0.37c-0.22,1.5-0.4,2.98-0.66,4.45c-0.73,4.05-2.7,7.51-5.16,10.75c-1.15,1.52-2.29,3.06-3.29,4.67
		c-1.76,2.82-2.58,5.92-2.52,9.25c0.12,6.45,0.16,12.91,0.36,19.36c0.08,2.46,0.51,4.91,0.8,7.37c0.07,0.58,0.25,1.03,1.04,1.03
		c0.7,0,1.24,0.82,1.18,1.54c-0.04,0.49-0.33,0.8-0.82,0.82c-0.71,0.03-1.43,0.08-2.13-0.01c-0.86-0.12-1.52-0.73-1.81-1.49
		c-0.5-1.32-1-2.67-1.21-4.05c-0.65-4.19-1.17-8.39-1.75-12.59c-0.45-3.25-0.92-6.51-1.37-9.76c-0.11-0.8-0.19-1.61-0.33-2.41
		c-0.04-0.21-0.21-0.48-0.4-0.58c-3.21-1.58-6.59-2.61-10.15-3.02c-0.97-0.11-1.95-0.08-2.92-0.15c-0.39-0.03-0.52,0.2-0.66,0.49
		c-1.71,3.56-4.16,6.52-7.41,8.79c-1.18,0.82-2.45,1.51-3.72,2.28c-3.46-2.84-5.84-6.21-5.72-10.86c0.12-4.46,1.86-8.2,5.18-11.22
		c-0.02-0.05-0.04-0.11-0.07-0.16c-0.21,0.02-0.42,0.01-0.61,0.08c-2.03,0.7-3.45,2.15-4.67,3.84c-4.25,5.9-3.3,13.42,1.15,18.52
		c2.36,2.7,5.28,4.58,8.45,6.14c2.71,1.33,5.5,2.51,7.95,4.31c3.29,2.41,5.83,5.44,7.51,9.16c0.06,0.14,0.1,0.29,0.13,0.38
		c-1.57-0.53-3.12-1.2-4.74-1.56c-1.83-0.4-3.72-0.66-5.6-0.7c-3.83-0.07-7.57-0.51-11.13-1.97C9.21,75.03,4.78,71.31,2.13,65.78
		c-3.26-6.83-2.8-13.61,1.05-20.07c4-6.68,10.07-10.63,17.51-12.59c3.32-0.87,6.7-1.15,10.13-1.04c1.97,0.06,3.93,0.17,5.9,0.17
		c1.89,0,3.71-0.37,5.35-1.39c1.45-0.91,2.48-2.13,2.84-3.95c0.62,0.72,1.01,1.49,1.24,2.35c0.77,2.92,0.39,5.74-0.79,8.49
		c-0.08,0.18-0.15,0.36-0.27,0.65c1.36-0.7,2.38-1.63,3.3-2.68c1.88-2.17,3.11-4.64,3.4-7.53c0.41-4.18-1.78-7.28-5.89-8.34
		c-2.31-0.59-4.63-0.43-6.95-0.07c-0.26,0.04-0.51,0.07-0.85,0.25c0.49,0.32,0.95,0.71,1.48,0.94c0.92,0.41,1.91,0.68,2.83,1.09
		c0.75,0.33,1.46,0.77,2.19,1.16c0.19,0.1,0.37,0.22,0.47,0.44c-2.79-0.7-5.69-1.05-7.83-3.14c-0.67-0.65-1.23-1.46-1.67-2.28
		c-0.48-0.91-0.16-1.33,0.85-1.57c1.61-0.39,3.22-0.78,4.8-1.27c0.45-0.14,0.82-0.61,1.18-0.97c0.94-0.95,1.12-1.98,0.77-3.33
		c-0.51-1.99-0.22-4.35,0.4-6.41c0.46,0.29,0.91,0.54,1.32,0.84c1.86,1.33,3.5,2.89,4.95,4.65c0.23,0.27,1.45,0.7,1.74,0.53
		c0.21-0.12,0.34-0.38,0.47-0.6c1.55-2.4,3.54-4.38,5.86-6.03C58.13,3.92,58.35,3.81,58.62,3.64z M57.32,14.46
		c0.59-2.28,0.96-4.56,0.31-6.99c-1.46,1.36-2.61,2.82-3.5,4.43C55.22,12.78,56.26,13.61,57.32,14.46z M50.24,15.28
		c-1.03-1.02-2.21-1.41-3.21-1.07c-0.91,0.31-1.4,1.01-1.77,1.87C47.1,16.66,48.68,16.2,50.24,15.28z"/>
	<path d="M25.34,3.75c-6.63-3.47-12.43-0.54-14.8,3.11c-2.7,4.15-2.24,9.42,1.14,12.86c3.54,3.6,9.79,4.35,14.66,0.61
		c-0.57,1.16-2.45,2.96-4.05,3.88c-7.12,4.12-16.11,0.42-18.38-7.55C1.9,9.57,6.06,2.2,13.12,0.44c4.12-1.02,7.92-0.31,11.26,2.42
		C24.71,3.14,25.02,3.46,25.34,3.75z"/>
	<path d="M51.07,54.13c3.64-0.97,6.39-3.19,8.88-5.77c-0.54,1.94-1.14,3.84-1.58,5.79c-1.02,4.5-1.47,9.07-1.49,13.69
		c-0.01,3.41-0.02,6.82,0.5,10.2c0.14,0.94,0.39,1.86,0.61,2.78c0.1,0.42,0.28,0.69,0.81,0.68c0.82-0.01,1.5,0.66,1.45,1.47
		c-0.02,0.31-0.35,0.83-0.58,0.85c-0.88,0.08-1.81,0.15-2.64-0.07c-0.95-0.25-1.6-1.07-1.93-1.98c-0.44-1.21-0.9-2.45-1.1-3.72
		c-0.63-3.94-1.21-7.89-1.69-11.85c-0.47-3.82-0.8-7.66-1.18-11.5C51.09,54.52,51.08,54.34,51.07,54.13z"/>
	<path d="M25.76,66.21c-2.02-1.1-3.97-2.15-5.99-3.25c0.59-0.36,1.1-0.66,1.61-0.98c3.56-2.25,6.34-5.2,8.21-8.99
		c0.15-0.3,0.31-0.41,0.64-0.4c0.77,0.02,1.53,0.01,2.41,0.01C31.64,57.88,29.39,62.41,25.76,66.21z"/>
	<path d="M7.59,81.46c0.75-0.03,1.38,0.09,1.75,0.78c0.49,0.91,0.1,1.63-0.92,1.65c-0.34,0.01-0.69,0-1.03,0
		c-1.66-0.01-2.89-1.16-2.85-2.85c0.05-2.2,0.24-4.4,0.37-6.79c0.65,0.55,1.08,1.04,1.62,1.37c1.16,0.71,1.52,1.64,1.19,2.97
		c-0.19,0.77-0.12,1.61-0.16,2.42C7.55,81.14,7.57,81.26,7.59,81.46z"/>
	<path d="M25.53,12.01c-2.71,0.44-4.15,2.03-4.67,4.66c-0.6-2.54-2.01-4.21-4.73-4.64c2.65-0.55,4.2-2.09,4.68-4.77
		C21.41,9.85,22.8,11.57,25.53,12.01z"/>
	<path d="M19.22,81.43c1.49,0.55,2.96,0.53,4.44,0.53c0.52,0,0.89,0.37,0.95,0.9c0.06,0.5-0.24,0.9-0.75,1.02
		c-1.99,0.45-3.62-0.32-4.55-2.15C19.29,81.66,19.28,81.59,19.22,81.43z"/>
	<path d="M36.32,6.72c-0.37-1.3-1.12-2.07-2.52-2.36c1.29-0.5,2.23-1.09,2.52-2.43c0.33,1.31,1.15,2.05,2.47,2.34
		C36.98,5.09,36.85,5.22,36.32,6.72z"/>
</g>
</svg>
