<?xml version="1.0" encoding="utf-8"?>
<!-- Generator: Adobe Illustrator 28.4.1, SVG Export Plug-In . SVG Version: 6.00 Build 0)  -->
<svg version="1.1" id="Camada_1" xmlns="http://www.w3.org/2000/svg" xmlns:xlink="http://www.w3.org/1999/xlink" x="0px" y="0px"
	 viewBox="0 0 48.96 64" style="enable-background:new 0 0 48.96 64;" xml:space="preserve">
<g>
	<path d="M44.66,2.78c0.86,1.93,1.33,3.91,1.28,5.97c-0.03,1.13-0.22,2.27-0.4,3.39c-0.06,0.35-0.03,0.61,0.17,0.9
		c1.14,1.63,2.07,3.38,2.57,5.31c1.82,7.05,0.15,13.13-5.11,18.18c-1.13,1.08-2.42,1.91-3.89,2.47c-0.09,0.03-0.17,0.05-0.42,0.13
		c0.2-0.66,0.32-1.24,0.55-1.78c0.48-1.13,1.31-2.02,2.11-2.92c1.61-1.8,2.96-3.77,3.75-6.07c1.05-3.05,1.33-6.15,0.48-9.3
		c-0.03-0.1-0.07-0.19-0.11-0.28c-0.17,1.14-0.3,2.27-0.5,3.39c-0.56,3.09-2.06,5.72-3.93,8.19c-0.88,1.16-1.74,2.33-2.51,3.56
		c-1.34,2.15-1.96,4.51-1.92,7.05c0.09,4.92,0.12,9.83,0.28,14.75c0.06,1.88,0.39,3.74,0.61,5.61c0.05,0.44,0.19,0.78,0.79,0.78
		c0.53,0,0.94,0.63,0.9,1.17c-0.03,0.37-0.25,0.61-0.62,0.63c-0.54,0.03-1.09,0.06-1.62-0.01c-0.66-0.09-1.15-0.55-1.38-1.13
		c-0.38-1-0.76-2.04-0.92-3.09c-0.5-3.19-0.89-6.4-1.33-9.59c-0.34-2.48-0.7-4.96-1.05-7.43c-0.09-0.61-0.14-1.23-0.25-1.84
		c-0.03-0.16-0.16-0.37-0.31-0.44c-2.45-1.2-5.02-1.99-7.73-2.3c-0.74-0.08-1.48-0.06-2.22-0.11c-0.3-0.02-0.4,0.15-0.5,0.37
		c-1.31,2.72-3.17,4.97-5.64,6.69c-0.9,0.62-1.86,1.15-2.83,1.74c-2.64-2.17-4.45-4.73-4.36-8.28c0.09-3.4,1.42-6.25,3.95-8.55
		c-0.02-0.04-0.03-0.08-0.05-0.12c-0.16,0.02-0.32,0.01-0.47,0.06c-1.55,0.53-2.63,1.64-3.56,2.92C5.23,37.3,5.95,43.03,9.34,46.92
		c1.8,2.06,4.02,3.49,6.44,4.68c2.07,1.01,4.19,1.92,6.06,3.28c2.51,1.83,4.44,4.14,5.72,6.98c0.05,0.11,0.08,0.22,0.1,0.29
		c-1.2-0.4-2.38-0.92-3.61-1.19c-1.4-0.3-2.84-0.51-4.26-0.53c-2.92-0.05-5.77-0.39-8.48-1.5c-4.29-1.76-7.67-4.59-9.68-8.81
		c-2.48-5.2-2.14-10.37,0.8-15.29c3.05-5.09,7.67-8.1,13.34-9.59c2.53-0.66,5.11-0.88,7.71-0.79c1.5,0.05,3,0.13,4.5,0.13
		c1.44,0,2.83-0.28,4.07-1.06c1.1-0.69,1.89-1.62,2.17-3.01c0.47,0.55,0.77,1.14,0.94,1.79c0.58,2.23,0.3,4.38-0.6,6.47
		c-0.06,0.14-0.11,0.27-0.2,0.49c1.04-0.53,1.82-1.24,2.51-2.04c1.43-1.65,2.37-3.53,2.59-5.73c0.31-3.19-1.36-5.55-4.49-6.35
		c-1.76-0.45-3.53-0.33-5.29-0.05c-0.19,0.03-0.39,0.06-0.65,0.19c0.37,0.24,0.73,0.54,1.13,0.72c0.7,0.31,1.45,0.52,2.16,0.83
		c0.57,0.25,1.11,0.59,1.67,0.89c0.14,0.08,0.28,0.17,0.35,0.33c-2.13-0.54-4.33-0.8-5.96-2.39c-0.51-0.5-0.94-1.11-1.27-1.74
		c-0.37-0.7-0.12-1.01,0.65-1.2c1.23-0.29,2.45-0.59,3.66-0.97c0.34-0.11,0.63-0.46,0.9-0.74c0.72-0.72,0.85-1.51,0.59-2.54
		c-0.39-1.51-0.17-3.32,0.31-4.88c0.35,0.22,0.69,0.41,1.01,0.64c1.42,1.01,2.67,2.2,3.77,3.55c0.17,0.21,1.11,0.53,1.33,0.41
		c0.16-0.09,0.26-0.29,0.36-0.46c1.18-1.83,2.69-3.34,4.47-4.59C44.29,2.99,44.46,2.9,44.66,2.78z M43.68,11.02
		c0.45-1.74,0.73-3.47,0.24-5.32c-1.11,1.03-1.99,2.15-2.67,3.37C42.07,9.74,42.86,10.37,43.68,11.02z M38.28,11.65
		c-0.79-0.78-1.69-1.08-2.45-0.82c-0.69,0.24-1.07,0.77-1.35,1.42C35.88,12.7,37.09,12.34,38.28,11.65z"/>
	<path d="M19.3,2.86C14.25,0.22,9.84,2.45,8.03,5.23c-2.06,3.16-1.71,7.18,0.87,9.8c2.7,2.74,7.46,3.31,11.17,0.46
		c-0.44,0.88-1.87,2.26-3.08,2.96c-5.42,3.14-12.28,0.32-14-5.75C1.45,7.29,4.61,1.67,9.99,0.34c3.14-0.78,6.04-0.24,8.58,1.84
		C18.83,2.39,19.06,2.63,19.3,2.86z"/>
	<path d="M38.91,41.24c2.77-0.74,4.87-2.43,6.76-4.4c-0.41,1.48-0.87,2.93-1.21,4.41c-0.78,3.43-1.12,6.91-1.13,10.43
		c-0.01,2.6-0.02,5.19,0.38,7.77c0.11,0.71,0.3,1.42,0.46,2.12c0.07,0.32,0.21,0.52,0.62,0.52c0.63-0.01,1.14,0.51,1.1,1.12
		c-0.01,0.24-0.27,0.64-0.44,0.65c-0.67,0.06-1.38,0.11-2.01-0.05c-0.72-0.19-1.22-0.81-1.47-1.51c-0.34-0.92-0.68-1.87-0.84-2.83
		c-0.48-3-0.92-6.01-1.29-9.03c-0.36-2.91-0.61-5.84-0.9-8.76C38.92,41.54,38.92,41.41,38.91,41.24z"/>
	<path d="M19.62,50.45c-1.54-0.84-3.02-1.64-4.57-2.48c0.45-0.27,0.84-0.5,1.23-0.74c2.71-1.71,4.83-3.96,6.26-6.85
		c0.11-0.23,0.24-0.31,0.49-0.3c0.58,0.02,1.17,0.01,1.83,0.01C24.11,44.1,22.39,47.55,19.62,50.45z"/>
	<path d="M5.78,62.07c0.57-0.03,1.05,0.07,1.33,0.6c0.38,0.7,0.08,1.24-0.7,1.26c-0.26,0.01-0.52,0-0.79,0
		c-1.26,0-2.2-0.88-2.17-2.17c0.04-1.68,0.18-3.35,0.29-5.17c0.49,0.42,0.83,0.79,1.23,1.04c0.89,0.54,1.16,1.25,0.9,2.26
		c-0.15,0.59-0.09,1.23-0.12,1.84C5.75,61.82,5.77,61.91,5.78,62.07z"/>
	<path d="M19.45,9.15c-2.07,0.33-3.16,1.55-3.55,3.55c-0.46-1.94-1.53-3.21-3.6-3.54c2.02-0.42,3.2-1.59,3.57-3.64
		C16.31,7.51,17.37,8.81,19.45,9.15z"/>
	<path d="M14.65,62.04c1.13,0.42,2.26,0.41,3.38,0.4c0.4,0,0.68,0.28,0.73,0.69c0.04,0.38-0.18,0.69-0.57,0.77
		c-1.52,0.34-2.76-0.24-3.46-1.64C14.7,62.22,14.69,62.16,14.65,62.04z"/>
	<path d="M27.67,5.12c-0.29-0.99-0.85-1.57-1.92-1.8c0.98-0.38,1.7-0.83,1.92-1.85c0.25,1,0.88,1.56,1.88,1.78
		C28.18,3.88,28.08,3.98,27.67,5.12z"/>
</g>
</svg>
