<?xml version="1.0" encoding="utf-8"?>
<!-- Generator: Adobe Illustrator 28.4.1, SVG Export Plug-In . SVG Version: 6.00 Build 0)  -->
<svg version="1.1" id="Camada_1" xmlns="http://www.w3.org/2000/svg" xmlns:xlink="http://www.w3.org/1999/xlink" x="0px" y="0px"
	 viewBox="0 0 14.54 19" style="enable-background:new 0 0 14.54 19;" xml:space="preserve">
<g>
	<path d="M13.25,0.82c0.26,0.57,0.39,1.16,0.38,1.77c-0.01,0.34-0.06,0.67-0.12,1.01c-0.02,0.1-0.01,0.18,0.05,0.27
		c0.34,0.48,0.61,1,0.76,1.57c0.54,2.09,0.04,3.89-1.52,5.39c-0.33,0.32-0.72,0.57-1.15,0.73c-0.03,0.01-0.05,0.02-0.12,0.04
		c0.06-0.19,0.1-0.37,0.16-0.53c0.14-0.33,0.39-0.6,0.63-0.86c0.48-0.54,0.88-1.12,1.11-1.8c0.31-0.9,0.4-1.82,0.14-2.76
		c-0.01-0.03-0.02-0.06-0.03-0.08c-0.05,0.34-0.09,0.67-0.15,1.01c-0.17,0.92-0.61,1.7-1.17,2.43c-0.26,0.34-0.52,0.69-0.74,1.05
		c-0.4,0.64-0.58,1.34-0.57,2.09c0.03,1.46,0.04,2.92,0.08,4.37c0.02,0.56,0.12,1.11,0.18,1.66c0.02,0.13,0.06,0.23,0.24,0.23
		c0.16,0,0.28,0.19,0.27,0.35c-0.01,0.11-0.08,0.18-0.18,0.19c-0.16,0.01-0.32,0.02-0.48,0c-0.19-0.03-0.34-0.16-0.41-0.34
		c-0.11-0.3-0.23-0.6-0.27-0.92c-0.15-0.95-0.26-1.9-0.4-2.84c-0.1-0.74-0.21-1.47-0.31-2.2c-0.03-0.18-0.04-0.36-0.08-0.54
		c-0.01-0.05-0.05-0.11-0.09-0.13c-0.73-0.36-1.49-0.59-2.29-0.68c-0.22-0.02-0.44-0.02-0.66-0.03c-0.09-0.01-0.12,0.05-0.15,0.11
		c-0.39,0.81-0.94,1.47-1.67,1.98c-0.27,0.19-0.55,0.34-0.84,0.52c-0.78-0.64-1.32-1.4-1.29-2.45c0.03-1.01,0.42-1.85,1.17-2.53
		c0-0.01-0.01-0.02-0.01-0.04c-0.05,0.01-0.1,0-0.14,0.02C3.12,9.02,2.79,9.35,2.52,9.73c-0.96,1.33-0.75,3.03,0.26,4.18
		c0.53,0.61,1.19,1.04,1.91,1.39c0.61,0.3,1.24,0.57,1.8,0.97c0.74,0.54,1.32,1.23,1.7,2.07c0.01,0.03,0.02,0.07,0.03,0.09
		c-0.35-0.12-0.71-0.27-1.07-0.35c-0.41-0.09-0.84-0.15-1.26-0.16c-0.87-0.01-1.71-0.11-2.51-0.45c-1.27-0.52-2.27-1.36-2.87-2.61
		c-0.74-1.54-0.63-3.08,0.24-4.53C1.63,8.82,3,7.92,4.69,7.48c0.75-0.2,1.51-0.26,2.29-0.23c0.44,0.01,0.89,0.04,1.33,0.04
		c0.43,0,0.84-0.08,1.21-0.31c0.33-0.2,0.56-0.48,0.64-0.89c0.14,0.16,0.23,0.34,0.28,0.53c0.17,0.66,0.09,1.3-0.18,1.92
		c-0.02,0.04-0.03,0.08-0.06,0.15c0.31-0.16,0.54-0.37,0.75-0.61c0.43-0.49,0.7-1.05,0.77-1.7c0.09-0.95-0.4-1.65-1.33-1.88
		c-0.52-0.13-1.05-0.1-1.57-0.02C8.75,4.48,8.69,4.48,8.62,4.52C8.73,4.6,8.83,4.68,8.95,4.74c0.21,0.09,0.43,0.15,0.64,0.25
		c0.17,0.07,0.33,0.17,0.49,0.26c0.04,0.02,0.08,0.05,0.11,0.1C9.56,5.18,8.91,5.11,8.42,4.63C8.27,4.49,8.14,4.3,8.05,4.12
		c-0.11-0.21-0.04-0.3,0.19-0.36C8.6,3.68,8.97,3.59,9.32,3.47c0.1-0.03,0.19-0.14,0.27-0.22C9.8,3.04,9.84,2.81,9.76,2.5
		C9.65,2.05,9.71,1.52,9.85,1.05c0.1,0.06,0.2,0.12,0.3,0.19c0.42,0.3,0.79,0.65,1.12,1.05c0.05,0.06,0.33,0.16,0.39,0.12
		c0.05-0.03,0.08-0.09,0.11-0.14c0.35-0.54,0.8-0.99,1.32-1.36C13.14,0.89,13.19,0.86,13.25,0.82z M12.96,3.27
		c0.13-0.51,0.22-1.03,0.07-1.58c-0.33,0.31-0.59,0.64-0.79,1C12.48,2.89,12.72,3.07,12.96,3.27z M11.36,3.45
		c-0.23-0.23-0.5-0.32-0.72-0.24c-0.2,0.07-0.32,0.23-0.4,0.42C10.65,3.76,11.01,3.66,11.36,3.45z"/>
	<path d="M5.73,0.85c-1.5-0.78-2.81-0.12-3.34,0.7C1.78,2.49,1.88,3.68,2.65,4.46c0.8,0.81,2.21,0.98,3.31,0.14
		C5.83,4.86,5.41,5.26,5.05,5.47C3.44,6.4,1.4,5.57,0.89,3.76C0.44,2.16,1.38,0.5,2.97,0.1C3.9-0.13,4.76,0.03,5.52,0.65
		C5.59,0.71,5.66,0.78,5.73,0.85z"/>
	<path d="M11.55,12.23c0.82-0.22,1.44-0.72,2.01-1.3c-0.12,0.44-0.26,0.87-0.36,1.31c-0.23,1.02-0.33,2.05-0.34,3.09
		c0,0.77,0,1.54,0.11,2.3c0.03,0.21,0.09,0.42,0.14,0.63c0.02,0.1,0.06,0.16,0.18,0.15c0.19,0,0.34,0.15,0.33,0.33
		c0,0.07-0.08,0.19-0.13,0.19c-0.2,0.02-0.41,0.03-0.6-0.02c-0.21-0.06-0.36-0.24-0.44-0.45c-0.1-0.27-0.2-0.55-0.25-0.84
		c-0.14-0.89-0.27-1.78-0.38-2.68c-0.11-0.86-0.18-1.73-0.27-2.6C11.55,12.32,11.55,12.28,11.55,12.23z"/>
	<path d="M5.83,14.96c-0.46-0.25-0.9-0.49-1.35-0.74c0.13-0.08,0.25-0.15,0.36-0.22c0.8-0.51,1.43-1.18,1.86-2.03
		c0.03-0.07,0.07-0.09,0.14-0.09c0.17,0.01,0.35,0,0.54,0C7.16,13.08,6.65,14.1,5.83,14.96z"/>
	<path d="M1.72,18.4c0.17-0.01,0.31,0.02,0.4,0.18c0.11,0.21,0.02,0.37-0.21,0.37c-0.08,0-0.16,0-0.23,0
		c-0.37,0-0.65-0.26-0.64-0.64c0.01-0.5,0.05-0.99,0.08-1.53c0.15,0.13,0.24,0.24,0.37,0.31c0.26,0.16,0.34,0.37,0.27,0.67
		c-0.04,0.17-0.03,0.36-0.04,0.55C1.71,18.33,1.72,18.36,1.72,18.4z"/>
	<path d="M5.78,2.71c-0.61,0.1-0.94,0.46-1.05,1.05C4.59,3.19,4.27,2.81,3.65,2.72c0.6-0.13,0.95-0.47,1.06-1.08
		C4.85,2.23,5.16,2.61,5.78,2.71z"/>
	<path d="M4.35,18.4c0.34,0.12,0.67,0.12,1,0.12c0.12,0,0.2,0.08,0.22,0.2c0.01,0.11-0.05,0.2-0.17,0.23
		c-0.45,0.1-0.82-0.07-1.03-0.49C4.37,18.45,4.36,18.43,4.35,18.4z"/>
	<path d="M8.21,1.52C8.13,1.22,7.96,1.05,7.64,0.98c0.29-0.11,0.5-0.25,0.57-0.55c0.08,0.3,0.26,0.46,0.56,0.53
		C8.36,1.15,8.33,1.18,8.21,1.52z"/>
</g>
</svg>
