<?xml version="1.0" encoding="utf-8"?>
<!-- Generator: Adobe Illustrator 28.4.1, SVG Export Plug-In . SVG Version: 6.00 Build 0)  -->
<svg version="1.1" id="Camada_1" xmlns="http://www.w3.org/2000/svg" xmlns:xlink="http://www.w3.org/1999/xlink" x="0px" y="0px"
	 viewBox="0 0 134.64 176" style="enable-background:new 0 0 134.64 176;" xml:space="preserve">
<g>
	<path d="M122.83,7.63c2.37,5.32,3.65,10.76,3.51,16.43c-0.08,3.12-0.6,6.24-1.1,9.34c-0.16,0.97-0.09,1.69,0.45,2.47
		c3.14,4.49,5.7,9.29,7.08,14.6c5.02,19.37,0.4,36.1-14.06,50c-3.09,2.98-6.66,5.27-10.69,6.78c-0.23,0.09-0.48,0.15-1.14,0.35
		c0.54-1.81,0.88-3.41,1.51-4.89c1.31-3.1,3.6-5.54,5.81-8.02c4.42-4.96,8.14-10.38,10.32-16.7c2.89-8.38,3.67-16.9,1.33-25.57
		c-0.07-0.26-0.19-0.51-0.29-0.77c-0.46,3.15-0.83,6.25-1.39,9.32c-1.54,8.49-5.67,15.74-10.81,22.52c-2.41,3.18-4.79,6.4-6.9,9.78
		c-3.68,5.9-5.4,12.4-5.27,19.38c0.25,13.52,0.33,27.04,0.76,40.56c0.16,5.16,1.07,10.29,1.68,15.43c0.15,1.22,0.53,2.15,2.18,2.16
		c1.46,0.01,2.59,1.72,2.47,3.22c-0.09,1.02-0.7,1.67-1.71,1.72c-1.48,0.07-3,0.18-4.46-0.03c-1.81-0.26-3.18-1.52-3.79-3.12
		c-1.06-2.76-2.09-5.6-2.54-8.49c-1.37-8.77-2.45-17.59-3.66-26.38c-0.94-6.82-1.92-13.63-2.88-20.45c-0.24-1.68-0.4-3.38-0.7-5.05
		c-0.08-0.45-0.45-1.01-0.84-1.21c-6.73-3.3-13.81-5.47-21.27-6.32c-2.02-0.23-4.08-0.18-6.11-0.31c-0.81-0.05-1.09,0.42-1.38,1.03
		c-3.59,7.47-8.71,13.67-15.52,18.41c-2.47,1.72-5.13,3.16-7.79,4.78c-7.26-5.96-12.24-13.01-11.99-22.76
		c0.24-9.34,3.91-17.19,10.85-23.5c-0.05-0.11-0.09-0.23-0.14-0.34c-0.43,0.05-0.89,0.02-1.29,0.16c-4.25,1.47-7.23,4.5-9.78,8.04
		c-8.9,12.36-6.92,28.11,2.42,38.81c4.94,5.66,11.06,9.6,17.71,12.86c5.68,2.78,11.52,5.27,16.66,9.03
		c6.9,5.04,12.21,11.39,15.74,19.2c0.13,0.3,0.22,0.61,0.28,0.79c-3.29-1.11-6.54-2.52-9.94-3.26c-3.84-0.83-7.8-1.39-11.72-1.46
		c-8.02-0.14-15.85-1.06-23.32-4.13c-11.81-4.85-21.09-12.63-26.63-24.24c-6.83-14.31-5.88-28.52,2.21-42.05
		c8.37-14.01,21.09-22.27,36.69-26.37c6.96-1.83,14.04-2.41,21.21-2.18c4.12,0.14,8.24,0.36,12.37,0.36c3.95,0,7.78-0.78,11.2-2.92
		c3.03-1.9,5.19-4.47,5.96-8.28c1.3,1.5,2.13,3.13,2.59,4.92c1.6,6.12,0.81,12.03-1.65,17.79c-0.16,0.38-0.31,0.75-0.56,1.36
		c2.85-1.46,5-3.41,6.91-5.62c3.95-4.54,6.52-9.72,7.12-15.77c0.86-8.77-3.74-15.26-12.35-17.47c-4.84-1.24-9.69-0.91-14.55-0.15
		c-0.54,0.08-1.07,0.16-1.77,0.51c1.03,0.67,1.99,1.48,3.1,1.97c1.93,0.86,3.99,1.43,5.93,2.28c1.58,0.69,3.06,1.61,4.58,2.44
		c0.4,0.22,0.78,0.47,0.97,0.92c-5.84-1.47-11.92-2.2-16.4-6.59c-1.4-1.37-2.58-3.05-3.5-4.79c-1.02-1.92-0.34-2.79,1.78-3.29
		c3.37-0.81,6.75-1.63,10.06-2.67c0.95-0.3,1.72-1.28,2.48-2.04c1.97-1.98,2.34-4.15,1.61-6.99C89.4,19.03,90,14.08,91.31,9.77
		c0.96,0.6,1.9,1.13,2.78,1.75c3.9,2.78,7.33,6.06,10.38,9.75c0.47,0.58,3.04,1.46,3.65,1.11c0.43-0.24,0.7-0.8,0.99-1.25
		c3.25-5.03,7.41-9.18,12.28-12.63C121.8,8.21,122.25,7.98,122.83,7.63z M120.11,30.3c1.23-4.78,2.02-9.55,0.66-14.64
		c-3.06,2.84-5.47,5.9-7.34,9.28C115.71,26.77,117.87,28.51,120.11,30.3z M105.26,32.02c-2.16-2.14-4.64-2.96-6.72-2.24
		c-1.9,0.65-2.93,2.11-3.7,3.92C98.68,34.91,102,33.94,105.26,32.02z"/>
	<path d="M53.09,7.87c-13.9-7.27-26.04-1.12-31.02,6.52c-5.66,8.68-4.7,19.74,2.4,26.95c7.42,7.54,20.52,9.11,30.72,1.27
		c-1.2,2.43-5.14,6.2-8.48,8.14c-14.91,8.62-33.76,0.88-38.5-15.82C3.99,20.05,12.69,4.6,27.48,0.93C36.11-1.21,44.08,0.28,51.08,6
		C51.78,6.58,52.42,7.24,53.09,7.87z"/>
	<path d="M107,113.41c7.62-2.04,13.39-6.67,18.6-12.09c-1.12,4.06-2.4,8.05-3.32,12.13c-2.13,9.43-3.08,19.01-3.11,28.68
		c-0.03,7.14-0.04,14.28,1.04,21.36c0.3,1.96,0.83,3.89,1.27,5.83c0.2,0.89,0.58,1.44,1.7,1.42c1.72-0.02,3.14,1.39,3.04,3.09
		c-0.04,0.65-0.74,1.75-1.21,1.79c-1.84,0.17-3.79,0.32-5.54-0.14c-1.99-0.52-3.35-2.23-4.05-4.16c-0.93-2.54-1.88-5.14-2.31-7.79
		c-1.33-8.26-2.53-16.54-3.55-24.84c-0.98-8.01-1.67-16.06-2.48-24.09C107.04,114.24,107.03,113.86,107,113.41z"/>
	<path d="M53.97,138.74c-4.24-2.3-8.31-4.51-12.56-6.82c1.23-0.75,2.31-1.38,3.37-2.05c7.45-4.71,13.29-10.9,17.2-18.84
		c0.31-0.64,0.65-0.86,1.34-0.83c1.61,0.05,3.21,0.02,5.04,0.02C66.29,121.28,61.58,130.76,53.97,138.74z"/>
	<path d="M15.9,170.69c1.57-0.07,2.88,0.18,3.67,1.64c1.03,1.92,0.22,3.42-1.93,3.47c-0.72,0.02-1.44,0.01-2.16,0.01
		c-3.47-0.01-6.05-2.42-5.97-5.98c0.11-4.61,0.49-9.22,0.78-14.23c1.35,1.16,2.27,2.18,3.39,2.87c2.44,1.49,3.19,3.43,2.49,6.23
		c-0.41,1.61-0.25,3.37-0.33,5.07C15.82,170.01,15.87,170.26,15.9,170.69z"/>
	<path d="M53.49,25.17c-5.69,0.92-8.7,4.25-9.78,9.77c-1.25-5.33-4.22-8.83-9.9-9.72c5.55-1.16,8.81-4.38,9.82-10
		C44.86,20.64,47.76,24.24,53.49,25.17z"/>
	<path d="M40.28,170.61c3.12,1.16,6.21,1.11,9.3,1.11c1.09,0,1.86,0.77,1.99,1.89c0.12,1.05-0.5,1.89-1.56,2.13
		c-4.17,0.95-7.59-0.67-9.53-4.5C40.42,171.1,40.39,170.95,40.28,170.61z"/>
	<path d="M76.09,14.08c-0.79-2.73-2.34-4.33-5.29-4.94c2.69-1.04,4.68-2.29,5.28-5.08c0.7,2.74,2.42,4.29,5.17,4.9
		C77.49,10.67,77.22,10.93,76.09,14.08z"/>
</g>
</svg>
