<?xml version="1.0" encoding="utf-8"?>
<!-- Generator: Adobe Illustrator 28.4.1, SVG Export Plug-In . SVG Version: 6.00 Build 0)  -->
<svg version="1.1" id="Camada_1" xmlns="http://www.w3.org/2000/svg" xmlns:xlink="http://www.w3.org/1999/xlink" x="0px" y="0px"
	 viewBox="0 0 24.48 32" style="enable-background:new 0 0 24.48 32;" xml:space="preserve">
<g>
	<path d="M22.32,1.39c0.43,0.97,0.66,1.95,0.64,2.98c-0.01,0.57-0.11,1.13-0.2,1.7c-0.03,0.18-0.02,0.31,0.08,0.45
		c0.57,0.82,1.04,1.69,1.29,2.65c0.91,3.52,0.07,6.56-2.55,9.08c-0.56,0.54-1.21,0.96-1.94,1.23c-0.04,0.02-0.09,0.03-0.21,0.06
		c0.1-0.33,0.16-0.62,0.27-0.89c0.24-0.56,0.65-1.01,1.05-1.46c0.8-0.9,1.48-1.88,1.87-3.03c0.52-1.52,0.67-3.07,0.24-4.64
		c-0.01-0.05-0.03-0.09-0.05-0.14c-0.08,0.57-0.15,1.14-0.25,1.69c-0.28,1.54-1.03,2.86-1.96,4.09c-0.44,0.58-0.87,1.16-1.25,1.78
		c-0.67,1.07-0.98,2.25-0.96,3.52c0.05,2.46,0.06,4.91,0.14,7.37c0.03,0.94,0.19,1.87,0.31,2.8c0.03,0.22,0.1,0.39,0.4,0.39
		c0.26,0,0.47,0.31,0.45,0.58c-0.02,0.19-0.13,0.3-0.31,0.31c-0.27,0.01-0.54,0.03-0.81-0.01c-0.33-0.05-0.58-0.28-0.69-0.57
		c-0.19-0.5-0.38-1.02-0.46-1.54c-0.25-1.59-0.44-3.19-0.67-4.79c-0.17-1.24-0.35-2.48-0.52-3.71c-0.04-0.31-0.07-0.61-0.13-0.92
		c-0.01-0.08-0.08-0.18-0.15-0.22c-1.22-0.6-2.51-0.99-3.86-1.15c-0.37-0.04-0.74-0.03-1.11-0.06c-0.15-0.01-0.2,0.08-0.25,0.19
		c-0.65,1.36-1.58,2.48-2.82,3.34c-0.45,0.31-0.93,0.57-1.41,0.87c-1.32-1.08-2.22-2.36-2.18-4.13c0.04-1.7,0.71-3.12,1.97-4.27
		c-0.01-0.02-0.02-0.04-0.02-0.06c-0.08,0.01-0.16,0-0.23,0.03c-0.77,0.27-1.31,0.82-1.78,1.46c-1.62,2.24-1.26,5.11,0.44,7.05
		c0.9,1.03,2.01,1.74,3.22,2.33c1.03,0.5,2.09,0.96,3.03,1.64c1.25,0.92,2.22,2.07,2.86,3.49c0.02,0.05,0.04,0.11,0.05,0.14
		c-0.6-0.2-1.19-0.46-1.81-0.59c-0.7-0.15-1.42-0.25-2.13-0.26c-1.46-0.02-2.88-0.19-4.24-0.75c-2.14-0.88-3.83-2.29-4.84-4.4
		c-1.24-2.6-1.07-5.18,0.4-7.64c1.52-2.54,3.83-4.05,6.66-4.79c1.26-0.33,2.55-0.44,3.85-0.4c0.75,0.02,1.5,0.07,2.25,0.06
		c0.72,0,1.41-0.14,2.03-0.53c0.55-0.35,0.94-0.81,1.08-1.5c0.24,0.27,0.39,0.57,0.47,0.89c0.29,1.11,0.15,2.19-0.3,3.23
		c-0.03,0.07-0.06,0.14-0.1,0.25c0.52-0.27,0.91-0.62,1.26-1.02c0.72-0.82,1.18-1.77,1.29-2.86c0.16-1.59-0.68-2.77-2.24-3.17
		c-0.88-0.23-1.76-0.16-2.64-0.03c-0.1,0.02-0.19,0.03-0.32,0.09c0.19,0.12,0.36,0.27,0.56,0.36c0.35,0.16,0.73,0.26,1.08,0.41
		c0.29,0.13,0.56,0.29,0.83,0.44c0.07,0.04,0.14,0.08,0.18,0.17C16.1,8.73,15,8.6,14.19,7.8c-0.25-0.25-0.47-0.55-0.64-0.87
		c-0.18-0.35-0.06-0.51,0.32-0.6c0.61-0.15,1.23-0.3,1.83-0.48c0.17-0.05,0.31-0.23,0.45-0.37c0.36-0.36,0.42-0.75,0.29-1.27
		c-0.19-0.76-0.08-1.66,0.15-2.44c0.17,0.11,0.34,0.21,0.5,0.32c0.71,0.5,1.33,1.1,1.88,1.77c0.09,0.1,0.55,0.27,0.66,0.2
		c0.08-0.04,0.13-0.15,0.18-0.23c0.59-0.91,1.35-1.67,2.23-2.29C22.13,1.49,22.22,1.45,22.32,1.39z M21.83,5.5
		c0.22-0.87,0.37-1.73,0.12-2.66c-0.56,0.52-0.99,1.07-1.33,1.68C21.03,4.86,21.42,5.18,21.83,5.5z M19.13,5.82
		c-0.39-0.39-0.84-0.54-1.22-0.41c-0.34,0.12-0.53,0.38-0.67,0.71C17.94,6.34,18.54,6.16,19.13,5.82z"/>
	<path d="M9.66,1.43c-2.52-1.32-4.73-0.2-5.63,1.18C2.99,4.19,3.17,6.2,4.46,7.51c1.35,1.37,3.73,1.65,5.58,0.23
		C9.82,8.18,9.1,8.86,8.5,9.21c-2.71,1.57-6.13,0.16-6.99-2.87c-0.77-2.7,0.81-5.5,3.5-6.17c1.57-0.39,3.01-0.12,4.28,0.92
		C9.42,1.2,9.53,1.32,9.66,1.43z"/>
	<path d="M19.45,20.6c1.38-0.37,2.43-1.21,3.38-2.2c-0.2,0.74-0.44,1.46-0.6,2.2c-0.39,1.71-0.56,3.45-0.57,5.21
		c0,1.3-0.01,2.59,0.19,3.88c0.05,0.36,0.15,0.71,0.23,1.06c0.04,0.16,0.11,0.26,0.31,0.26c0.31,0,0.57,0.25,0.55,0.56
		c-0.01,0.12-0.13,0.32-0.22,0.33c-0.33,0.03-0.69,0.06-1.01-0.03c-0.36-0.1-0.61-0.41-0.74-0.75c-0.17-0.46-0.34-0.93-0.42-1.41
		c-0.24-1.5-0.46-3-0.64-4.51c-0.18-1.45-0.3-2.92-0.45-4.37C19.45,20.75,19.45,20.68,19.45,20.6z"/>
	<path d="M9.81,25.19c-0.77-0.42-1.51-0.82-2.28-1.24c0.22-0.14,0.42-0.25,0.61-0.37c1.35-0.86,2.41-1.98,3.12-3.42
		c0.06-0.12,0.12-0.16,0.24-0.15c0.29,0.01,0.58,0,0.92,0C12.05,22.02,11.2,23.75,9.81,25.19z"/>
	<path d="M2.9,31c0.28-0.01,0.52,0.03,0.67,0.3c0.19,0.35,0.04,0.62-0.35,0.63c-0.13,0-0.26,0-0.39,0c-0.63,0-1.1-0.44-1.08-1.09
		c0.02-0.84,0.09-1.67,0.14-2.58c0.25,0.21,0.41,0.4,0.62,0.52c0.44,0.27,0.58,0.62,0.45,1.13c-0.07,0.29-0.05,0.61-0.06,0.92
		C2.89,30.87,2.9,30.92,2.9,31z"/>
	<path d="M9.73,4.57C8.69,4.74,8.15,5.34,7.95,6.34c-0.23-0.97-0.77-1.6-1.8-1.77c1.01-0.21,1.6-0.8,1.78-1.82
		C8.16,3.75,8.69,4.4,9.73,4.57z"/>
	<path d="M7.33,30.98c0.57,0.21,1.13,0.2,1.69,0.2c0.2,0,0.34,0.14,0.36,0.34c0.02,0.19-0.09,0.34-0.28,0.39
		c-0.76,0.17-1.38-0.12-1.73-0.82C7.35,31.07,7.35,31.04,7.33,30.98z"/>
	<path d="M13.83,2.56c-0.14-0.5-0.42-0.79-0.96-0.9c0.49-0.19,0.85-0.42,0.96-0.92c0.13,0.5,0.44,0.78,0.94,0.89
		C14.09,1.94,14.04,1.99,13.83,2.56z"/>
</g>
</svg>
