<?xml version="1.0" encoding="utf-8"?>
<!-- Generator: Adobe Illustrator 28.4.1, SVG Export Plug-In . SVG Version: 6.00 Build 0)  -->
<svg version="1.1" id="Camada_1" xmlns="http://www.w3.org/2000/svg" xmlns:xlink="http://www.w3.org/1999/xlink" x="0px" y="0px"
	 viewBox="0 0 32.13 42" style="enable-background:new 0 0 32.13 42;" xml:space="preserve">
<g>
	<path d="M29.31,1.82c0.57,1.27,0.87,2.57,0.84,3.92C30.13,6.49,30,7.23,29.89,7.97c-0.04,0.23-0.02,0.4,0.11,0.59
		c0.75,1.07,1.36,2.22,1.69,3.48c1.2,4.62,0.1,8.61-3.36,11.93c-0.74,0.71-1.59,1.26-2.55,1.62c-0.06,0.02-0.11,0.03-0.27,0.08
		c0.13-0.43,0.21-0.81,0.36-1.17c0.31-0.74,0.86-1.32,1.39-1.91c1.06-1.18,1.94-2.48,2.46-3.99c0.69-2,0.87-4.03,0.32-6.1
		c-0.02-0.06-0.05-0.12-0.07-0.18c-0.11,0.75-0.2,1.49-0.33,2.22c-0.37,2.03-1.35,3.76-2.58,5.37c-0.58,0.76-1.14,1.53-1.65,2.33
		c-0.88,1.41-1.29,2.96-1.26,4.63c0.06,3.23,0.08,6.45,0.18,9.68c0.04,1.23,0.26,2.46,0.4,3.68c0.03,0.29,0.13,0.51,0.52,0.52
		c0.35,0,0.62,0.41,0.59,0.77c-0.02,0.24-0.17,0.4-0.41,0.41c-0.35,0.02-0.72,0.04-1.06-0.01c-0.43-0.06-0.76-0.36-0.9-0.74
		c-0.25-0.66-0.5-1.34-0.61-2.03c-0.33-2.09-0.58-4.2-0.87-6.3c-0.22-1.63-0.46-3.25-0.69-4.88c-0.06-0.4-0.09-0.81-0.17-1.2
		c-0.02-0.11-0.11-0.24-0.2-0.29c-1.61-0.79-3.3-1.31-5.07-1.51c-0.48-0.06-0.97-0.04-1.46-0.07c-0.19-0.01-0.26,0.1-0.33,0.25
		c-0.86,1.78-2.08,3.26-3.7,4.39c-0.59,0.41-1.22,0.75-1.86,1.14c-1.73-1.42-2.92-3.1-2.86-5.43c0.06-2.23,0.93-4.1,2.59-5.61
		c-0.01-0.03-0.02-0.05-0.03-0.08c-0.1,0.01-0.21,0-0.31,0.04c-1.01,0.35-1.73,1.07-2.33,1.92c-2.12,2.95-1.65,6.71,0.58,9.26
		c1.18,1.35,2.64,2.29,4.23,3.07c1.36,0.66,2.75,1.26,3.98,2.15c1.65,1.2,2.91,2.72,3.76,4.58c0.03,0.07,0.05,0.15,0.07,0.19
		c-0.79-0.26-1.56-0.6-2.37-0.78c-0.92-0.2-1.86-0.33-2.8-0.35c-1.91-0.03-3.78-0.25-5.57-0.99c-2.82-1.16-5.03-3.01-6.35-5.78
		c-1.63-3.42-1.4-6.81,0.53-10.03c2-3.34,5.03-5.32,8.76-6.29c1.66-0.44,3.35-0.58,5.06-0.52c0.98,0.03,1.97,0.09,2.95,0.09
		c0.94,0,1.86-0.19,2.67-0.7c0.72-0.45,1.24-1.07,1.42-1.98c0.31,0.36,0.51,0.75,0.62,1.17c0.38,1.46,0.19,2.87-0.39,4.24
		c-0.04,0.09-0.07,0.18-0.13,0.32c0.68-0.35,1.19-0.81,1.65-1.34c0.94-1.08,1.56-2.32,1.7-3.76C26.1,12,25,10.45,22.95,9.92
		c-1.15-0.3-2.31-0.22-3.47-0.04c-0.13,0.02-0.26,0.04-0.42,0.12c0.25,0.16,0.48,0.35,0.74,0.47c0.46,0.2,0.95,0.34,1.42,0.54
		c0.38,0.17,0.73,0.38,1.09,0.58c0.1,0.05,0.19,0.11,0.23,0.22c-1.39-0.35-2.84-0.53-3.91-1.57c-0.33-0.33-0.62-0.73-0.84-1.14
		c-0.24-0.46-0.08-0.66,0.42-0.79c0.81-0.19,1.61-0.39,2.4-0.64c0.23-0.07,0.41-0.3,0.59-0.49c0.47-0.47,0.56-0.99,0.38-1.67
		c-0.25-0.99-0.11-2.18,0.2-3.2c0.23,0.14,0.45,0.27,0.66,0.42c0.93,0.66,1.75,1.45,2.48,2.33c0.11,0.14,0.73,0.35,0.87,0.27
		c0.1-0.06,0.17-0.19,0.24-0.3c0.78-1.2,1.77-2.19,2.93-3.01C29.07,1.96,29.17,1.9,29.31,1.82z M28.66,7.23
		c0.29-1.14,0.48-2.28,0.16-3.49c-0.73,0.68-1.3,1.41-1.75,2.21C27.61,6.39,28.13,6.8,28.66,7.23z M25.12,7.64
		c-0.52-0.51-1.11-0.71-1.6-0.54c-0.45,0.16-0.7,0.5-0.88,0.94C23.55,8.33,24.34,8.1,25.12,7.64z"/>
	<path d="M12.67,1.88c-3.32-1.74-6.21-0.27-7.4,1.55C3.92,5.5,4.15,8.14,5.84,9.86c1.77,1.8,4.9,2.17,7.33,0.3
		c-0.29,0.58-1.23,1.48-2.02,1.94c-3.56,2.06-8.06,0.21-9.19-3.78C0.95,4.79,3.03,1.1,6.56,0.22c2.06-0.51,3.96-0.16,5.63,1.21
		C12.36,1.57,12.51,1.73,12.67,1.88z"/>
	<path d="M25.53,27.06c1.82-0.49,3.19-1.59,4.44-2.89c-0.27,0.97-0.57,1.92-0.79,2.89c-0.51,2.25-0.73,4.54-0.74,6.84
		c-0.01,1.7-0.01,3.41,0.25,5.1c0.07,0.47,0.2,0.93,0.3,1.39c0.05,0.21,0.14,0.34,0.41,0.34c0.41-0.01,0.75,0.33,0.73,0.74
		c-0.01,0.15-0.18,0.42-0.29,0.43c-0.44,0.04-0.9,0.08-1.32-0.03c-0.47-0.13-0.8-0.53-0.97-0.99c-0.22-0.61-0.45-1.23-0.55-1.86
		c-0.32-1.97-0.6-3.95-0.85-5.93c-0.23-1.91-0.4-3.83-0.59-5.75C25.54,27.26,25.54,27.17,25.53,27.06z"/>
	<path d="M12.88,33.11c-1.01-0.55-1.98-1.08-3-1.63c0.29-0.18,0.55-0.33,0.81-0.49c1.78-1.12,3.17-2.6,4.11-4.5
		c0.07-0.15,0.16-0.2,0.32-0.2c0.38,0.01,0.77,0,1.2,0C15.82,28.94,14.7,31.2,12.88,33.11z"/>
	<path d="M3.79,40.73c0.37-0.02,0.69,0.04,0.88,0.39c0.25,0.46,0.05,0.82-0.46,0.83c-0.17,0-0.34,0-0.52,0
		c-0.83,0-1.44-0.58-1.42-1.43c0.03-1.1,0.12-2.2,0.19-3.39c0.32,0.28,0.54,0.52,0.81,0.68c0.58,0.36,0.76,0.82,0.59,1.49
		c-0.1,0.39-0.06,0.8-0.08,1.21C3.78,40.57,3.79,40.63,3.79,40.73z"/>
	<path d="M12.76,6.01c-1.36,0.22-2.08,1.01-2.33,2.33c-0.3-1.27-1.01-2.11-2.36-2.32c1.32-0.28,2.1-1.05,2.34-2.39
		C10.71,4.93,11.4,5.78,12.76,6.01z"/>
	<path d="M9.61,40.71c0.74,0.28,1.48,0.27,2.22,0.26c0.26,0,0.44,0.18,0.48,0.45c0.03,0.25-0.12,0.45-0.37,0.51
		c-0.99,0.23-1.81-0.16-2.27-1.08C9.65,40.83,9.64,40.79,9.61,40.71z"/>
	<path d="M18.16,3.36c-0.19-0.65-0.56-1.03-1.26-1.18c0.64-0.25,1.12-0.55,1.26-1.21c0.17,0.65,0.58,1.02,1.23,1.17
		C18.49,2.55,18.43,2.61,18.16,3.36z"/>
</g>
</svg>
