<?xml version="1.0" encoding="UTF-8"?>
<svg id="Camada_1" data-name="Camada 1" xmlns="http://www.w3.org/2000/svg" viewBox="0 0 36.46 64">
  <defs>
    <style>
      .cls-1 {
        fill: #000;
        stroke-width: 0px;
      }
    </style>
  </defs>
  <path class="cls-1" d="M6.63,22.37c.67.93,1.27,1.75,1.89,2.61.12-.75.19-1.46.34-2.16.6-2.77,2.1-5,4.23-6.83,1.55-1.33,3.33-2.22,5.25-2.89.2-.07.4-.22.52-.39,2.78-4.15,5.54-8.31,8.31-12.47.04-.06.08-.11.18-.25,2.72,7.93,5.42,15.78,8.12,23.64-.03.02-.07.04-.1.06-1.02-.5-2.02-1.03-3.05-1.51-2.46-1.15-4.92-2.29-7.4-3.39-1.52-.67-3.14-.99-4.81-.76-2.33.32-4.08,1.59-5.42,3.48-.96,1.36-1.51,2.9-2.02,4.47-.07.21-.13.41-.19.62,0,0,.01.02.05.07,1.29-2.12,3.04-3.61,5.51-4.1,1.85-.37,3.64-.1,5.49.5-.56.22-1.04.41-1.53.6-3.79,1.49-7.35,3.43-10.83,5.53-2.02,1.22-4.03,2.47-6.04,3.7-.21.13-.28.27-.29.51-.07,1.12-.49,2.05-1.52,2.61-.38.21-.76.28-1.13-.02-.63-.51-1.27-1.01-1.91-1.51-.32-.26-.32-.48-.02-.79,2.02-2.09,4.01-4.21,6.03-6.29.38-.39.56-.76.52-1.32-.09-1.2-.1-2.4-.15-3.73ZM29.49,18.25s.06-.05.1-.07c-1.12-3.87-2.24-7.74-3.36-11.6-.19.63-.3,1.25-.42,1.87-.42,2.31-.83,4.61-1.25,6.92-.04.23,0,.38.23.49.49.23.97.49,1.45.74,1.08.55,2.17,1.1,3.25,1.65Z"/>
  <path class="cls-1" d="M14.1,58.47c-.48-.97-.58-1.91-.63-2.86-.17-3.34.8-6.37,2.53-9.19,1.22-1.99,2.77-3.72,4.3-5.47,1.77-2.02,3.55-4.03,5.33-6.05.11-.13.21-.27.39-.5-.44.1-.77.18-1.1.26-5.76,1.39-11.52,2.79-17.28,4.18-.15.04-.34.05-.47-.01-.91-.48-1.81-.98-2.72-1.48-.04-.02-.07-.04-.2-.12.61-.16,1.12-.3,1.63-.43,3.64-.88,7.27-1.76,10.91-2.62,2.85-.68,5.7-1.34,8.54-2.02.12-.03.25-.11.34-.2,1.4-1.42,2.79-2.85,4.22-4.32-.86-1.23-1.72-2.44-2.57-3.66l.05-.07c.18.09.36.19.55.28,2.72,1.41,5.44,2.83,8.16,4.24.26.14.39.29.39.62-.02,2.09-.02,4.18,0,6.27,0,.34-.12.52-.4.71-4.77,3.24-9.55,6.47-13.98,10.18-2.4,2-4.54,4.24-6.14,6.96-.95,1.62-1.63,3.33-1.85,5.29Z"/>
  <path class="cls-1" d="M36.46,39.32c0,1.9.01,3.72-.02,5.54,0,.18-.19.4-.35.53-1.94,1.58-3.9,3.13-5.82,4.71-2.76,2.27-5.47,4.6-7.88,7.25-1.69,1.86-3.24,3.84-4.56,5.98-.12.2-.23.42-.37.67-.42-.72-.9-1.38-1.18-2.11-.16-.42-.05-.96.01-1.44.37-2.59,1.51-4.85,3.03-6.94,1.81-2.5,4.06-4.56,6.51-6.4,3.4-2.54,6.84-5.04,10.27-7.55.09-.07.2-.13.36-.23Z"/>
  <path class="cls-1" d="M15.78,12.73c-4.07,1.67-6.86,4.69-9.2,8.2-.04,0-.08-.02-.11-.03-.36-6.57-.73-13.14-1.1-19.83,3.51,3.94,6.94,7.78,10.41,11.66Z"/>
  <path class="cls-1" d="M12.04,54.54c-1.08-1.88-1.79-3.88-2.08-6.04-.4-2.96.12-5.78,1.17-8.54.09-.22.19-.34.45-.4.64-.14,1.28-.32,1.99-.5-.22.88-.46,1.69-.61,2.51-.44,2.39-.93,4.77-1.23,7.17-.23,1.92-.12,3.88.31,5.8Z"/>
</svg>