<?xml version="1.0" encoding="UTF-8"?>
<svg id="Camada_1" data-name="Camada 1" xmlns="http://www.w3.org/2000/svg" viewBox="0 0 23.93 42">
  <defs>
    <style>
      .cls-1 {
        fill: #000;
        stroke-width: 0px;
      }
    </style>
  </defs>
  <path class="cls-1" d="M4.35,14.68c.44.61.83,1.15,1.24,1.71.08-.49.12-.96.22-1.41.39-1.82,1.38-3.28,2.78-4.48,1.02-.87,2.19-1.46,3.45-1.89.13-.04.26-.14.34-.26,1.82-2.72,3.64-5.45,5.45-8.18.02-.04.05-.07.11-.16,1.79,5.2,3.56,10.36,5.33,15.51-.02.01-.04.02-.07.04-.67-.33-1.33-.67-2-.99-1.61-.75-3.23-1.51-4.85-2.23-1-.44-2.06-.65-3.16-.5-1.53.21-2.68,1.04-3.56,2.28-.63.89-.99,1.91-1.33,2.93-.04.13-.09.27-.13.41,0,0,0,.01.03.05.85-1.39,1.99-2.37,3.61-2.69,1.21-.24,2.39-.06,3.6.33-.37.14-.69.27-1,.39-2.49.98-4.82,2.25-7.1,3.63-1.33.8-2.64,1.62-3.97,2.43-.14.09-.18.18-.19.34-.05.74-.32,1.35-1,1.71-.25.14-.5.19-.74-.01-.42-.33-.84-.66-1.25-.99-.21-.17-.21-.32-.01-.52,1.32-1.37,2.63-2.76,3.96-4.13.25-.25.37-.5.34-.86-.06-.79-.07-1.58-.1-2.45ZM19.35,11.98s.04-.03.06-.05c-.73-2.54-1.47-5.08-2.2-7.62-.13.42-.2.82-.27,1.23-.27,1.51-.55,3.03-.82,4.54-.03.15,0,.25.15.32.32.15.63.32.95.49.71.36,1.42.72,2.14,1.09Z"/>
  <path class="cls-1" d="M9.25,38.37c-.31-.63-.38-1.26-.41-1.88-.11-2.19.52-4.18,1.66-6.03.8-1.31,1.81-2.44,2.82-3.59,1.16-1.33,2.33-2.65,3.5-3.97.07-.08.14-.18.26-.33-.29.07-.51.12-.72.17-3.78.92-7.56,1.83-11.34,2.74-.1.02-.22.03-.31,0-.6-.31-1.19-.64-1.78-.97-.02-.01-.05-.03-.13-.08.4-.11.73-.2,1.07-.28,2.39-.58,4.77-1.15,7.16-1.72,1.87-.45,3.74-.88,5.61-1.33.08-.02.17-.07.22-.13.92-.93,1.83-1.87,2.77-2.83-.57-.8-1.13-1.6-1.69-2.4l.03-.05c.12.06.24.12.36.19,1.78.93,3.57,1.86,5.36,2.78.17.09.26.19.26.41-.01,1.37-.01,2.74,0,4.12,0,.22-.08.34-.26.47-3.13,2.13-6.27,4.25-9.18,6.68-1.57,1.31-2.98,2.79-4.03,4.57-.62,1.06-1.07,2.19-1.21,3.47Z"/>
  <path class="cls-1" d="M23.92,25.8c0,1.25,0,2.44-.01,3.64,0,.12-.13.26-.23.35-1.27,1.04-2.56,2.05-3.82,3.09-1.81,1.49-3.59,3.02-5.17,4.75-1.11,1.22-2.13,2.52-3,3.92-.08.13-.15.27-.24.44-.27-.47-.59-.9-.77-1.38-.11-.27-.03-.63,0-.95.24-1.7.99-3.18,1.99-4.56,1.19-1.64,2.66-3,4.27-4.2,2.23-1.67,4.49-3.3,6.74-4.95.06-.05.13-.08.24-.15Z"/>
  <path class="cls-1" d="M10.36,8.35c-2.67,1.1-4.5,3.07-6.04,5.38-.02,0-.05-.01-.07-.02-.24-4.31-.48-8.63-.72-13.02,2.31,2.58,4.56,5.1,6.83,7.65Z"/>
  <path class="cls-1" d="M7.9,35.79c-.71-1.23-1.17-2.55-1.36-3.96-.26-1.94.08-3.8.77-5.6.06-.15.13-.23.29-.26.42-.09.84-.21,1.3-.33-.14.58-.3,1.11-.4,1.64-.29,1.57-.61,3.13-.8,4.71-.15,1.26-.08,2.54.2,3.8Z"/>
</svg>