<?xml version="1.0" encoding="UTF-8"?>
<svg id="Camada_1" data-name="Camada 1" xmlns="http://www.w3.org/2000/svg" viewBox="0 0 47.86 84">
  <defs>
    <style>
      .cls-1 {
        fill: #000;
        stroke-width: 0px;
      }
    </style>
  </defs>
  <path class="cls-1" d="M8.7,29.36c.88,1.22,1.66,2.3,2.48,3.43.15-.99.25-1.92.44-2.83.79-3.64,2.75-6.57,5.55-8.97,2.03-1.74,4.38-2.91,6.89-3.79.26-.09.53-.29.68-.51,3.64-5.45,7.27-10.91,10.91-16.37.05-.07.1-.14.23-.32,3.57,10.4,7.12,20.71,10.66,31.02-.04.02-.09.05-.13.07-1.33-.66-2.66-1.35-4.01-1.98-3.23-1.5-6.45-3.01-9.71-4.45-2-.89-4.12-1.3-6.31-1-3.06.42-5.35,2.08-7.11,4.57-1.26,1.79-1.98,3.81-2.65,5.86-.09.27-.17.54-.25.81,0,.01.02.03.06.1,1.69-2.78,3.99-4.73,7.23-5.38,2.42-.48,4.78-.13,7.2.66-.73.29-1.37.54-2.01.79-4.97,1.96-9.65,4.5-14.21,7.26-2.65,1.61-5.28,3.24-7.93,4.85-.28.17-.37.36-.39.68-.09,1.47-.64,2.69-2,3.43-.5.27-.99.37-1.49-.02-.83-.67-1.67-1.32-2.5-1.99-.42-.33-.41-.63-.02-1.04,2.65-2.74,5.26-5.52,7.92-8.26.49-.51.73-1,.68-1.73-.11-1.57-.13-3.15-.2-4.9ZM38.7,23.96s.08-.06.12-.1c-1.47-5.08-2.94-10.15-4.41-15.23-.25.83-.4,1.65-.55,2.46-.55,3.03-1.09,6.05-1.64,9.08-.05.3,0,.5.3.64.64.3,1.27.65,1.9.97,1.42.73,2.85,1.45,4.27,2.17Z"/>
  <path class="cls-1" d="M18.51,76.74c-.63-1.27-.76-2.51-.82-3.76-.23-4.39,1.04-8.37,3.32-12.07,1.6-2.61,3.63-4.89,5.64-7.18,2.33-2.65,4.66-5.3,6.99-7.94.15-.17.28-.36.51-.65-.58.13-1.01.23-1.45.34-7.56,1.83-15.12,3.66-22.68,5.49-.19.05-.45.07-.61-.02-1.2-.63-2.38-1.29-3.57-1.94-.05-.03-.09-.05-.26-.15.8-.21,1.47-.4,2.13-.56,4.77-1.15,9.54-2.3,14.32-3.44,3.74-.89,7.48-1.76,11.21-2.65.16-.04.33-.14.45-.26,1.83-1.87,3.66-3.74,5.53-5.67-1.13-1.61-2.25-3.2-3.37-4.8l.07-.09c.24.12.48.25.72.37,3.57,1.86,7.14,3.71,10.71,5.56.34.18.52.38.51.82-.02,2.74-.02,5.49,0,8.23,0,.45-.16.69-.52.93-6.26,4.25-12.53,8.5-18.35,13.36-3.15,2.63-5.96,5.57-8.05,9.13-1.25,2.12-2.14,4.38-2.42,6.95Z"/>
  <path class="cls-1" d="M47.85,51.61c0,2.5.01,4.89-.02,7.27,0,.24-.25.52-.46.69-2.54,2.07-5.11,4.1-7.64,6.19-3.62,2.98-7.18,6.03-10.34,9.51-2.22,2.44-4.25,5.03-5.99,7.85-.16.27-.31.55-.49.88-.55-.95-1.18-1.81-1.55-2.77-.21-.55-.07-1.27.02-1.89.48-3.4,1.99-6.36,3.97-9.11,2.37-3.29,5.32-5.99,8.55-8.4,4.47-3.34,8.98-6.61,13.48-9.91.12-.09.26-.17.48-.31Z"/>
  <path class="cls-1" d="M20.72,16.71c-5.34,2.19-9,6.15-12.08,10.76-.05-.01-.1-.02-.15-.04-.48-8.63-.95-17.25-1.44-26.03,4.61,5.17,9.11,10.21,13.67,15.31Z"/>
  <path class="cls-1" d="M15.8,71.58c-1.41-2.47-2.35-5.1-2.72-7.92-.52-3.88.16-7.59,1.54-11.21.11-.29.26-.45.59-.52.84-.18,1.68-.41,2.61-.65-.29,1.16-.61,2.21-.81,3.29-.58,3.13-1.22,6.25-1.61,9.41-.31,2.53-.16,5.09.41,7.61Z"/>
</svg>