<?xml version="1.0" encoding="UTF-8"?>
<svg id="Camada_1" data-name="Camada 1" xmlns="http://www.w3.org/2000/svg" viewBox="0 0 10.83 19">
  <defs>
    <style>
      .cls-1 {
        fill: #000;
        stroke-width: 0px;
      }
    </style>
  </defs>
  <path class="cls-1" d="M1.97,6.64c.2.28.38.52.56.78.03-.22.06-.43.1-.64.18-.82.62-1.49,1.26-2.03.46-.39.99-.66,1.56-.86.06-.02.12-.07.15-.12.82-1.23,1.65-2.47,2.47-3.7.01-.02.02-.03.05-.07.81,2.35,1.61,4.69,2.41,7.02,0,0-.02.01-.03.02-.3-.15-.6-.31-.91-.45-.73-.34-1.46-.68-2.2-1.01-.45-.2-.93-.29-1.43-.23-.69.1-1.21.47-1.61,1.03-.29.4-.45.86-.6,1.33-.02.06-.04.12-.06.18,0,0,0,0,.01.02.38-.63.9-1.07,1.64-1.22.55-.11,1.08-.03,1.63.15-.17.07-.31.12-.45.18-1.12.44-2.18,1.02-3.21,1.64-.6.36-1.2.73-1.79,1.1-.06.04-.08.08-.09.15-.02.33-.14.61-.45.77-.11.06-.22.08-.34,0-.19-.15-.38-.3-.57-.45-.1-.08-.09-.14,0-.23.6-.62,1.19-1.25,1.79-1.87.11-.12.17-.23.15-.39-.03-.36-.03-.71-.04-1.11ZM8.75,5.42s.02-.01.03-.02c-.33-1.15-.66-2.3-1-3.44-.06.19-.09.37-.12.56-.12.68-.25,1.37-.37,2.05-.01.07,0,.11.07.15.15.07.29.15.43.22.32.16.64.33.97.49Z"/>
  <path class="cls-1" d="M4.19,17.36c-.14-.29-.17-.57-.19-.85-.05-.99.24-1.89.75-2.73.36-.59.82-1.11,1.28-1.62.53-.6,1.05-1.2,1.58-1.8.03-.04.06-.08.12-.15-.13.03-.23.05-.33.08-1.71.41-3.42.83-5.13,1.24-.04.01-.1.02-.14,0-.27-.14-.54-.29-.81-.44-.01,0-.02-.01-.06-.03.18-.05.33-.09.48-.13,1.08-.26,2.16-.52,3.24-.78.84-.2,1.69-.4,2.54-.6.04,0,.07-.03.1-.06.41-.42.83-.85,1.25-1.28-.26-.36-.51-.72-.76-1.09l.02-.02c.05.03.11.06.16.08.81.42,1.61.84,2.42,1.26.08.04.12.09.12.18,0,.62,0,1.24,0,1.86,0,.1-.04.16-.12.21-1.42.96-2.84,1.92-4.15,3.02-.71.59-1.35,1.26-1.82,2.07-.28.48-.48.99-.55,1.57Z"/>
  <path class="cls-1" d="M10.82,11.67c0,.56,0,1.11,0,1.65,0,.05-.06.12-.1.16-.57.47-1.16.93-1.73,1.4-.82.67-1.62,1.36-2.34,2.15-.5.55-.96,1.14-1.35,1.78-.04.06-.07.12-.11.2-.12-.21-.27-.41-.35-.63-.05-.12-.02-.29,0-.43.11-.77.45-1.44.9-2.06.54-.74,1.2-1.36,1.93-1.9,1.01-.76,2.03-1.5,3.05-2.24.03-.02.06-.04.11-.07Z"/>
  <path class="cls-1" d="M4.69,3.78c-1.21.5-2.04,1.39-2.73,2.43-.01,0-.02,0-.03,0-.11-1.95-.22-3.9-.33-5.89,1.04,1.17,2.06,2.31,3.09,3.46Z"/>
  <path class="cls-1" d="M3.57,16.19c-.32-.56-.53-1.15-.62-1.79-.12-.88.04-1.72.35-2.54.03-.07.06-.1.13-.12.19-.04.38-.09.59-.15-.07.26-.14.5-.18.74-.13.71-.28,1.41-.36,2.13-.07.57-.04,1.15.09,1.72Z"/>
</svg>