<?xml version="1.0" encoding="UTF-8"?>
<svg id="Camada_1" data-name="Camada 1" xmlns="http://www.w3.org/2000/svg" viewBox="0 0 100.28 176">
  <defs>
    <style>
      .cls-1 {
        fill: #000;
        stroke-width: 0px;
      }
    </style>
  </defs>
  <path class="cls-1" d="M18.22,61.51c1.84,2.55,3.48,4.82,5.19,7.18.32-2.07.52-4.02.93-5.93,1.65-7.63,5.77-13.76,11.63-18.79,4.26-3.65,9.17-6.11,14.44-7.93.54-.19,1.11-.61,1.42-1.08,7.64-11.42,15.24-22.86,22.85-34.29.1-.15.21-.3.48-.68,7.49,21.8,14.91,43.4,22.33,65-.09.05-.18.1-.28.15-2.8-1.38-5.57-2.83-8.4-4.14-6.76-3.15-13.52-6.31-20.34-9.33-4.19-1.85-8.63-2.73-13.22-2.1-6.41.89-11.22,4.37-14.9,9.57-2.65,3.74-4.16,7.99-5.56,12.29-.18.57-.36,1.13-.53,1.7,0,.02.04.06.13.2,3.54-5.82,8.35-9.92,15.15-11.28,5.08-1.02,10.01-.26,15.09,1.38-1.54.6-2.87,1.13-4.21,1.65-10.42,4.11-20.21,9.43-29.77,15.21-5.56,3.36-11.07,6.79-16.62,10.16-.59.36-.77.75-.81,1.41-.19,3.08-1.34,5.64-4.19,7.18-1.05.57-2.08.78-3.12-.05-1.74-1.39-3.5-2.77-5.25-4.16-.88-.7-.87-1.33-.05-2.17,5.55-5.75,11.03-11.57,16.59-17.3,1.04-1.07,1.54-2.09,1.43-3.62-.24-3.3-.28-6.61-.42-10.27ZM81.09,50.19c.09-.07.17-.14.26-.2-3.08-10.64-6.16-21.27-9.24-31.91-.53,1.74-.84,3.45-1.14,5.16-1.14,6.34-2.29,12.69-3.44,19.03-.11.62-.01,1.04.63,1.34,1.35.63,2.65,1.36,3.98,2.04,2.98,1.52,5.97,3.03,8.95,4.55Z"/>
  <path class="cls-1" d="M38.78,160.78c-1.32-2.66-1.59-5.26-1.72-7.87-.47-9.19,2.19-17.53,6.95-25.29,3.36-5.47,7.6-10.24,11.82-15.04,4.88-5.55,9.77-11.1,14.65-16.65.31-.36.59-.75,1.07-1.37-1.21.28-2.12.48-3.03.71-15.84,3.84-31.68,7.68-47.52,11.5-.41.1-.94.14-1.29-.04-2.51-1.32-4.99-2.7-7.48-4.06-.1-.05-.19-.11-.54-.32,1.68-.44,3.07-.83,4.47-1.17,10-2.41,19.99-4.83,30-7.22,7.83-1.87,15.66-3.69,23.49-5.55.34-.08.69-.3.94-.55,3.84-3.92,7.67-7.85,11.59-11.87-2.37-3.37-4.72-6.71-7.07-10.06.05-.06.1-.13.15-.19.5.26,1,.52,1.5.78,7.48,3.89,14.96,7.78,22.44,11.66.72.37,1.08.8,1.07,1.71-.05,5.75-.04,11.5,0,17.25,0,.94-.33,1.44-1.09,1.95-13.12,8.91-26.26,17.8-38.45,27.98-6.6,5.51-12.48,11.67-16.88,19.14-2.62,4.45-4.48,9.17-5.08,14.56Z"/>
  <path class="cls-1" d="M100.25,108.13c0,5.23.03,10.24-.04,15.24,0,.49-.52,1.1-.96,1.45-5.32,4.34-10.72,8.6-16.01,12.97-7.58,6.25-15.04,12.64-21.67,19.92-4.66,5.12-8.91,10.55-12.55,16.44-.34.56-.64,1.14-1.03,1.84-1.15-1.98-2.46-3.79-3.25-5.8-.45-1.15-.15-2.65.04-3.97,1.01-7.12,4.16-13.33,8.32-19.1,4.97-6.89,11.16-12.55,17.91-17.6,9.36-7,18.82-13.85,28.24-20.76.26-.19.55-.35,1-.64Z"/>
  <path class="cls-1" d="M43.41,35.01c-11.19,4.59-18.86,12.88-25.31,22.55-.1-.03-.21-.05-.31-.08-1-18.07-2-36.14-3.01-54.54,9.66,10.82,19.09,21.38,28.64,32.07Z"/>
  <path class="cls-1" d="M33.1,149.98c-2.96-5.17-4.92-10.68-5.71-16.6-1.09-8.13.33-15.9,3.22-23.48.24-.62.54-.95,1.23-1.09,1.77-.38,3.51-.87,5.47-1.36-.6,2.43-1.28,4.64-1.69,6.89-1.21,6.56-2.56,13.11-3.37,19.72-.65,5.29-.33,10.66.85,15.94Z"/>
</svg>