<?xml version="1.0" encoding="UTF-8"?>
<svg id="Camada_1" data-name="Camada 1" xmlns="http://www.w3.org/2000/svg" viewBox="0 0 18.23 32" style="fill: #000; stroke-width: 0px;">
  <defs>
    <style>
      .cls-1 {
        fill: #000;
        stroke-width: 0px;
      }
    </style>
  </defs>
  <path class="cls-1" d="M3.31,11.18c.33.46.63.88.94,1.31.06-.38.09-.73.17-1.08.3-1.39,1.05-2.5,2.11-3.42.77-.66,1.67-1.11,2.62-1.44.1-.03.2-.11.26-.2,1.39-2.08,2.77-4.16,4.15-6.23.02-.03.04-.05.09-.12,1.36,3.96,2.71,7.89,4.06,11.82-.02,0-.03.02-.05.03-.51-.25-1.01-.51-1.53-.75-1.23-.57-2.46-1.15-3.7-1.7-.76-.34-1.57-.5-2.4-.38-1.17.16-2.04.79-2.71,1.74-.48.68-.76,1.45-1.01,2.23-.03.1-.07.21-.1.31,0,0,0,.01.02.04.64-1.06,1.52-1.8,2.75-2.05.92-.18,1.82-.05,2.74.25-.28.11-.52.21-.77.3-1.89.75-3.68,1.71-5.41,2.77-1.01.61-2.01,1.24-3.02,1.85-.11.06-.14.14-.15.26-.03.56-.24,1.03-.76,1.31-.19.1-.38.14-.57,0-.32-.25-.64-.5-.95-.76-.16-.13-.16-.24,0-.4,1.01-1.05,2-2.1,3.02-3.15.19-.19.28-.38.26-.66-.04-.6-.05-1.2-.08-1.87ZM14.74,9.13s.03-.02.05-.04c-.56-1.93-1.12-3.87-1.68-5.8-.1.32-.15.63-.21.94-.21,1.15-.42,2.31-.63,3.46-.02.11,0,.19.11.24.25.12.48.25.72.37.54.28,1.08.55,1.63.83Z"/>
  <path class="cls-1" d="M7.05,29.23c-.24-.48-.29-.96-.31-1.43-.09-1.67.4-3.19,1.26-4.6.61-.99,1.38-1.86,2.15-2.73.89-1.01,1.78-2.02,2.66-3.03.06-.06.11-.14.19-.25-.22.05-.39.09-.55.13-2.88.7-5.76,1.4-8.64,2.09-.07.02-.17.03-.23,0-.46-.24-.91-.49-1.36-.74-.02,0-.03-.02-.1-.06.31-.08.56-.15.81-.21,1.82-.44,3.64-.88,5.45-1.31,1.42-.34,2.85-.67,4.27-1.01.06-.01.13-.05.17-.1.7-.71,1.39-1.43,2.11-2.16-.43-.61-.86-1.22-1.28-1.83l.03-.04c.09.05.18.09.27.14,1.36.71,2.72,1.41,4.08,2.12.13.07.2.15.19.31,0,1.05,0,2.09,0,3.14,0,.17-.06.26-.2.35-2.39,1.62-4.77,3.24-6.99,5.09-1.2,1-2.27,2.12-3.07,3.48-.48.81-.81,1.67-.92,2.65Z"/>
  <path class="cls-1" d="M18.23,19.66c0,.95,0,1.86,0,2.77,0,.09-.1.2-.18.26-.97.79-1.95,1.56-2.91,2.36-1.38,1.14-2.73,2.3-3.94,3.62-.85.93-1.62,1.92-2.28,2.99-.06.1-.12.21-.19.33-.21-.36-.45-.69-.59-1.05-.08-.21-.03-.48,0-.72.18-1.3.76-2.42,1.51-3.47.9-1.25,2.03-2.28,3.26-3.2,1.7-1.27,3.42-2.52,5.14-3.77.05-.03.1-.06.18-.12Z"/>
  <path class="cls-1" d="M7.89,6.37c-2.04.84-3.43,2.34-4.6,4.1-.02,0-.04,0-.06-.01-.18-3.29-.36-6.57-.55-9.92,1.76,1.97,3.47,3.89,5.21,5.83Z"/>
  <path class="cls-1" d="M6.02,27.27c-.54-.94-.89-1.94-1.04-3.02-.2-1.48.06-2.89.59-4.27.04-.11.1-.17.22-.2.32-.07.64-.16.99-.25-.11.44-.23.84-.31,1.25-.22,1.19-.47,2.38-.61,3.58-.12.96-.06,1.94.15,2.9Z"/>
</svg>